<?xml version="1.0" encoding="utf-8"?>
<!-- Generator: Adobe Illustrator 24.1.3, SVG Export Plug-In . SVG Version: 6.00 Build 0)  -->
<svg version="1.1" id="Layer_1" xmlns="http://www.w3.org/2000/svg" xmlns:xlink="http://www.w3.org/1999/xlink" x="0px" y="0px"
	 viewBox="0 0 1000 1000" style="enable-background:new 0 0 1000 1000;" xml:space="preserve">
<path d="M72.11,528.93c-0.54,0.41-0.86,0.54-1.01,0.78c-0.94,1.44-2.34,1.71-3.93,1.68c-2.58-0.05-5.18,0.07-7.75-0.07
	c-1.51-0.08-2.41,0.37-3.21,1.69c-3.29,5.36-8.12,8.61-14.34,9.43c-8.72,1.14-15.68-2.1-20.14-9.64
	c-4.23-7.15-3.84-14.54,0.66-21.53c4.14-6.42,12.56-9.58,20.18-8.03c8.88,1.8,15.49,9.4,16.15,17.8c0.14,1.81,0.54,2.09,2.39,2.02
	c4.39-0.16,4.43-0.29,5.12-4.65c1.11-7,2.33-13.98,3.54-20.96c0.35-2,1.26-2.94,2.75-3.11c1.47-0.16,3.23,1.08,3.77,2.72
	c0.18,0.55,0.31,1.13,0.35,1.71c0.72,8.56,1.47,17.11,2.11,25.68c0.84,11.14,1.58,22.29,2.37,33.43c0.7,9.81,1.4,19.63,2.1,29.44
	c0.02,0.25-0.07,0.53,0.02,0.74c0.21,0.49,0.51,0.95,0.77,1.42c0.43-0.41,0.95-0.77,1.27-1.25c0.2-0.31,0.13-0.81,0.16-1.22
	c1.13-15.38,2.24-30.77,3.39-46.15c1.59-21.29,3.22-42.57,4.81-63.86c0.63-8.48,1.16-16.97,1.79-25.45
	c0.83-11.23,1.71-22.45,2.55-33.67c0.74-9.89,1.45-19.79,2.19-29.68c1.35-18.21,2.71-36.42,4.07-54.63
	c0.48-6.4,0.95-12.81,1.43-19.21c0.02-0.33,0.04-0.67,0.1-0.99c0.34-1.96,1.19-2.88,2.77-3.05c1.61-0.17,3.11,0.74,3.73,2.35
	c0.24,0.61,0.37,1.28,0.43,1.94c0.99,11.04,1.94,22.09,2.95,33.13c1.24,13.53,2.54,27.06,3.78,40.59
	c0.93,10.13,1.81,20.26,2.75,30.39c1.27,13.7,2.6,27.39,3.86,41.09c0.95,10.38,1.83,20.77,2.76,31.15
	c0.41,4.57,0.85,9.13,1.29,13.69c0.06,0.6,0.25,1.19,0.85,1.84c0.24-0.56,0.51-1.11,0.71-1.68c0.24-0.71,0.37-1.46,0.63-2.16
	c1.03-2.76,4.11-3.33,5.89-0.98c0.72,0.95,1.11,2.24,1.34,3.43c1.03,5.23,1.96,10.48,2.91,15.73c0.17,0.94,0.35,1.88,1.48,2.04
	c1.08,0.15,1.73-0.61,2.13-1.45c0.5-1.05,0.83-2.18,1.21-3.28c0.85-2.43,2.31-4.42,4.4-5.93c2.75-1.98,5.59-1.9,8.31,0.12
	c2.45,1.82,3.89,4.3,4.87,7.11c1.19,3.4,1.58,3.65,5.25,3.6c5.08-0.08,10.17-0.1,15.26-0.17c0.6-0.01,1.2-0.22,2.34-0.43
	c-0.94-0.74-1.41-1.16-1.93-1.52c-9.14-6.47-17.82-13.47-25.29-21.87c-7.71-8.66-12.75-18.55-13.37-30.29
	c-0.6-11.25,1.62-21.78,9.02-30.67c6.13-7.37,14.21-10.91,23.68-11.1c9.58-0.19,17.67,3.64,24.62,10.02
	c1.9,1.74,3.56,3.74,5.35,5.61c0.44,0.46,0.92,0.88,1.57,1.49c0.61-0.71,1.08-1.26,1.54-1.81c5.76-7,12.66-12.43,21.65-14.43
	c10.59-2.36,20.2,0.05,28.5,7.1c5.64,4.8,9.1,11.03,10.99,18.1c2.46,9.23,2.41,18.49-0.52,27.62c-2.36,7.35-6.53,13.65-11.71,19.31
	c-7.54,8.21-16.09,15.23-25.32,21.46c-0.27,0.18-0.49,0.43-0.69,0.61c0.07,1.06,0.8,1.05,1.45,1.05c5.59-0.03,11.17-0.08,16.76-0.1
	c1.32,0,2.38-0.28,3.19-1.51c1.82-2.77,3.81-4.17,7.37-2.43c0.41,0.2,0.95,0.15,1.37,0.21c0.77-1.7,1.34-3.36,2.23-4.83
	c1.89-3.11,4.66-4.66,8.41-4.19c2.72,0.35,4.65,1.96,5.9,4.19c1.12,2.01,1.89,4.25,2.61,6.45c0.64,1.97,0.81,2.24,2.94,2.2
	c0.67-0.01,1.33-0.07,2-0.07c2.99-0.03,4.45,1.05,5.25,3.94c0.38,1.36,0.6,2.77,0.94,4.14c0.11,0.44,0.38,0.85,0.97,1.26
	c0.11-0.6,0.28-1.2,0.33-1.8c1.31-16.62,2.61-33.25,3.9-49.87c0.25-3.24,0.47-6.49,0.71-9.73c0.06-0.75,0.11-1.5,0.21-2.24
	c0.31-2.27,1.21-3.32,2.94-3.45c1.83-0.14,3.53,1.12,4.06,3.04c0.11,0.4,0.14,0.82,0.18,1.23c1.52,17.11,3.04,34.22,4.55,51.32
	c0.18,2.08,0.38,2.29,2.39,2.26c2.67-0.04,5.34-0.01,8-0.11c2.32-0.09,2.6-0.33,3.02-2.5c1.92-9.82,3.78-19.65,5.72-29.46
	c1.65-8.34,3.4-16.66,5.09-25c0.32-1.59,0.99-2.86,2.75-3.14c1.45-0.23,3.39,0.84,3.88,2.56c0.69,2.39,1.07,4.87,1.45,7.33
	c1.66,10.88,3.26,21.76,4.89,32.65c1.47,9.81,2.93,19.62,4.42,29.43c1.77,11.62,3.57,23.24,5.35,34.85c0.2,1.28,0.37,2.57,0.56,3.91
	c1.24-0.32,1.09-1.2,1.19-1.87c0.94-6.43,1.84-12.87,2.78-19.31c1.89-13.04,3.8-26.07,5.7-39.11c0.67-4.62,1.35-9.24,2.05-13.85
	c0.16-1.07,0.27-2.17,0.62-3.18c0.66-1.92,2.71-2.61,4.49-1.64c1.34,0.73,2.01,1.93,2.39,3.36c2.03,7.57,4.09,15.13,6.11,22.7
	c0.55,2.06,0.84,2.33,2.84,2.33c26.02,0,52.04,0.01,78.06,0c1.58,0,3.17-0.08,4.75-0.17c1.17-0.07,1.84-0.68,1.84-1.92
	c-0.01-1.66,0-3.32,0-5.25c-2.68-1.07-5.52-2.2-8.37-3.34c-4.73-1.9-9.31-4.1-13.42-7.16c-0.27-0.2-0.62-0.34-0.8-0.59
	c-2.66-3.68-6.96-5.02-10.52-7.4c-2.55-1.71-4.96-3.64-7.32-5.6c-0.8-0.67-1.41-1.65-1.89-2.6c-1.17-2.33-0.64-4.25,1.7-5.48
	c1.6-0.84,3.36-1.51,5.13-1.86c2.77-0.54,5.61-0.74,8.42-1.1c0.78-0.1,1.56-0.23,2.84-0.42c-0.76-1.05-1.2-1.7-1.68-2.32
	c-3.29-4.19-6.87-8.19-9.13-13.1c-2.11-4.57-1.37-8.97,1.05-13.14c1.13-1.94,2.62-1.95,3.95-0.14c0.78,1.06,1.31,2.31,1.89,3.51
	c1.62,3.38,2.95,6.92,4.85,10.13c2.19,3.7,4.86,7.13,7.34,10.66c0.91,1.29,1.88,2.54,2.87,3.77c1.07,1.32,1.66,1.44,3.69,0.78
	c-0.76-1.82-1.48-3.64-2.27-5.42c-3.47-7.86-6.76-15.79-9.09-24.08c-0.45-1.6-0.74-3.25-0.95-4.9c-0.36-2.73,0.47-5.17,2.43-7.07
	c1.48-1.44,3.1-2.79,4.82-3.93c5.57-3.7,19.53-8.59,27.02-9.47c-0.91,0.49-1.33,0.78-1.79,0.96c-4.96,1.96-10.01,3.73-14.85,5.93
	c-2.85,1.3-5.38,3.29-8.05,4.98c-0.21,0.13-0.4,0.3-0.58,0.48c-4.13,4.2-3.71,8.23,0.72,11.36c3.05,2.16,6.58,3.2,10.16,4.04
	c7.35,1.71,14.83,2.19,22.35,1.96c9.7-0.3,19.27-1.54,28.64-4.15c5.16-1.44,10.17-3.24,14.7-6.15c2.11-1.35,4.08-2.91,5.37-5.13
	c1.57-2.71,1.42-4.65-0.95-6.67c-1.63-1.39-3.48-2.62-5.42-3.5c-2.26-1.03-4.72-1.62-7.11-2.34c-0.57-0.17-1.21-0.1-1.82-0.14
	c-0.06,0.17-0.13,0.33-0.19,0.5c0.81,0.51,1.67,0.95,2.4,1.56c1.4,1.16,2.93,2.25,4.04,3.66c2.44,3.08,1.64,6.99-1.8,9.61
	c-2.96,2.26-6.36,3.66-9.86,4.76c-5.83,1.84-11.86,2.62-17.93,3.23c-6.25,0.63-12.48,0.67-18.72,0c-3.92-0.42-7.77-1.14-11.37-2.78
	c-1.41-0.64-2.69-1.54-4.03-2.32c0.06-0.16,0.11-0.32,0.17-0.48c0.26,0,0.57-0.09,0.78,0.01c6.3,2.95,13.03,3.4,19.81,3.22
	c9.12-0.24,18.08-1.71,26.85-4.23c2.28-0.66,4.32-1.75,6.03-3.42c2.45-2.4,2.12-5.36-0.86-7.04c-0.93-0.52-2-0.82-3.02-1.16
	c-10.03-3.37-20.12-6.61-30.09-10.14c-6.09-2.16-11.76-5.26-16.4-9.84c-6.71-6.64-11.12-14.43-10.47-24.22
	c0.35-5.34,2.54-9.83,7.64-12.36c2.61-1.3,5.43-1.64,8.28-1.46c4.02,0.25,7.92,1.06,11.61,2.75c2.27,1.04,2.39,0.96,3.5-1.41
	c2.43-5.19,5.44-9.95,10.17-13.4c4.54-3.3,9.57-4.12,14.96-2.72c6.59,1.7,11.56,5.48,14.37,11.77c1.9,4.25,1.98,8.74,1.2,13.26
	c-1.67,9.61-7.16,16.32-15.81,20.55c-3.26,1.59-6.29,3.44-8.57,6.33c-0.46,0.59-0.91,1.2-1.24,1.87c-0.67,1.39-0.47,2.57,0.52,3.41
	c0.97,0.82,1.97,0.74,2.97,0c0.19-0.14,0.44-0.19,0.67-0.28c0.38,2.68-2.37,4.74-4.97,3.74c-1.81-0.69-3.09-1.98-3.62-3.88
	c-0.86-3.03-0.33-5.82,1.8-8.16c1.4-1.53,3.01-2.88,4.55-4.28c4.56-4.14,7.82-9.16,9.4-15.08c0.74-2.77,0.97-5.77,0.84-8.65
	c-0.25-5.81-4.8-8.87-10.48-7.35c-5.41,1.45-9.18,4.93-11.82,9.73c-0.83,1.51-1.46,3.13-2.25,4.84c-0.54-0.18-1.08-0.32-1.59-0.53
	c-3.93-1.67-7.96-3.07-12.25-3.3c-2.3-0.12-4.68,0.05-6.92,0.56c-3.47,0.78-4.9,2.96-5.11,6.48c-0.31,5.24,2.26,9.29,5.33,13.11
	c3.95,4.91,8.93,8.72,13.96,12.43c1.51,1.11,3.42,1.7,5.18,2.45c3.22,1.37,6.48,2.64,9.7,4.02c1.65,0.71,3.31,0.95,5.11,0.93
	c7.35-0.08,14.67,0.41,21.87,1.99c4.09,0.9,8.04,2.21,11.75,4.16c1.38,0.73,2.67,1.72,3.82,2.79c1.84,1.73,2.77,3.91,2.67,6.5
	c-0.07,1.64-0.01,3.28-0.01,5.25c0.89-0.19,1.68-0.3,2.43-0.52c2.81-0.8,5.63-1.57,8.61-1.18c1.86,0.24,3.56,0.8,4.95,2.14
	c1.55,1.5,2.21,3.28,1.95,5.42c-0.37,2.96-1.53,5.63-2.99,8.16c-4.57,7.91-10.56,14.56-18.03,19.83c-1.42,1-3.09,1.64-4.57,2.56
	c-0.73,0.46-1.58,1.07-1.88,1.81c-0.74,1.84-1.4,3.77-1.72,5.73c-0.33,2.01-0.99,3.66-2.61,4.92c-0.29,0.23-0.43,0.66-0.8,1.26
	c1,0.48,1.85,0.92,2.73,1.32c5.46,2.47,10.98,4.82,16.38,7.43c3.38,1.64,6.43,3.86,8.98,6.68c0.5,0.56,0.99,1.13,1.42,1.74
	c1.66,2.3,1.47,4.9-0.75,6.65c-1.55,1.22-3.37,2.1-5.1,3.07c-0.76,0.43-1.61,0.7-2.92,1.26c0.97,0.42,1.38,0.74,1.78,0.74
	c8.42,0.02,16.84-0.01,25.26-0.01c8.25,0,16.51,0.03,24.76,0.05c0.42,0,0.83,0.01,1.25-0.01c2.43-0.09,2.79-0.41,3.43-2.77
	c2.04-7.48,4.1-14.95,6.15-22.43c0.07-0.24,0.12-0.49,0.2-0.72c0.64-2.01,1.68-2.94,3.25-2.91c1.73,0.04,3.3,1.3,3.65,3.19
	c0.51,2.7,0.89,5.43,1.28,8.15c2.03,14.03,4.03,28.06,6.08,42.08c1.19,8.16,2.45,16.32,3.69,24.47c0.08,0.52,0.31,1.03,0.93,1.54
	c0.18-0.68,0.42-1.35,0.53-2.04c1.83-12.12,3.66-24.23,5.46-36.35c1.89-12.7,3.71-25.41,5.62-38.1c1.54-10.22,3.15-20.44,4.73-30.65
	c0.01-0.08,0.03-0.16,0.05-0.25c0.46-2.4,1.43-3.47,3.21-3.53c1.59-0.06,3.41,1.44,3.83,3.37c0.87,3.99,1.66,8,2.45,12.01
	c1.66,8.42,3.3,16.85,4.95,25.28c1.12,5.73,2.25,11.45,3.36,17.18c0.45,2.35,0.52,2.4,2.9,2.38c2.5-0.02,5-0.01,7.5,0.01
	c2.4,0.01,2.75-0.27,2.96-2.61c1-10.96,1.98-21.92,2.97-32.88c0.54-5.98,1.11-11.95,1.67-17.93c0.05-0.5,0.09-1,0.19-1.49
	c0.35-1.79,1.39-2.85,2.89-2.98c1.56-0.13,3.21,0.82,3.73,2.38c0.37,1.09,0.52,2.27,0.61,3.43c0.84,10.81,1.65,21.62,2.47,32.43
	c0.71,9.31,1.44,18.62,2.18,27.93c0.03,0.36,0.25,0.71,0.89,1.1c0.33-1.32,0.67-2.64,0.99-3.96c0.25-1.05,0.41-2.14,0.74-3.16
	c0.58-1.79,1.22-2.22,3.1-2.3c1.33-0.06,2.67-0.08,4-0.1c1.35-0.02,2-0.63,2.43-1.99c0.75-2.37,1.62-4.75,2.83-6.91
	c2.93-5.23,8.62-4.7,12.21-1.71c1.71,1.43,2.8,3.27,3.48,5.39c0.19,0.61,0.49,1.18,0.8,1.88c0.62-0.23,1.14-0.29,1.5-0.57
	c1.71-1.37,3.28-0.76,4.8,0.3c0.54,0.38,1.15,0.83,1.4,1.4c1.01,2.23,2.79,2.46,4.95,2.39c5.41-0.18,10.83-0.17,16.25-0.26
	c0.45-0.01,0.9-0.21,1.79-0.42c-0.75-0.68-1.16-1.14-1.66-1.49c-7.68-5.35-14.96-11.19-21.57-17.81
	c-5.94-5.94-11.15-12.46-14.06-20.45c-1.27-3.5-2.29-7.18-2.76-10.86c-1.3-10.26-0.02-20.22,5.44-29.2
	c6.81-11.2,17.01-16.43,30.07-15.46c10.37,0.77,18.51,6.06,25.26,13.72c0.5,0.56,0.96,1.15,1.46,1.71c1.45,1.62,1.64,1.57,3.03-0.01
	c1.81-2.06,3.58-4.19,5.62-6.02c4.92-4.41,10.52-7.71,17.1-8.88c11.04-1.95,20.88,0.56,28.93,8.64
	c9.84,9.87,12.45,22.11,11.09,35.46c-1.24,12.19-7.44,21.92-15.8,30.48c-6.9,7.07-14.58,13.19-22.62,18.89
	c-0.51,0.36-0.97,0.78-1.75,1.41c0.83,0.25,1.26,0.5,1.69,0.5c5.34,0.03,10.67,0.03,16.01,0.01c2.71-0.01,3.69-0.71,4.63-3.32
	c0.91-2.52,1.88-4.99,3.96-6.85c2.93-2.6,5.81-2.83,9.1-0.68c2.64,1.73,4.12,4.29,5.14,7.18c0.31,0.86,0.56,1.78,1.08,2.51
	c0.33,0.46,1.14,0.87,1.66,0.8c0.5-0.06,1.06-0.7,1.34-1.23c0.31-0.56,0.33-1.28,0.47-1.93c1.14-5.55,2.2-11.12,3.45-16.65
	c0.69-3.06,3.48-3.71,5.62-1.41c0.6,0.65,0.99,1.52,1.38,2.34c0.21,0.44,0.17,0.99,0.35,1.45c0.17,0.43,0.49,0.8,0.93,1.49
	c0.27-0.76,0.52-1.18,0.56-1.61c1.42-15.36,2.82-30.72,4.22-46.08c1.69-18.52,3.37-37.03,5.05-55.55
	c1.8-19.76,3.57-39.53,5.39-59.29c0.91-9.88,1.88-19.75,2.83-29.63c0.06-0.66,0.11-1.34,0.29-1.98c0.67-2.4,2.89-3.11,4.9-1.62
	c1.41,1.04,1.77,2.52,1.88,4.17c0.36,5.57,0.76,11.15,1.17,16.72c1.01,13.89,2.01,27.77,3.04,41.66
	c1.61,21.78,3.24,43.57,4.88,65.35c0.96,12.72,1.98,25.43,2.92,38.16c0.77,10.39,1.44,20.79,2.21,31.19
	c1.25,16.88,2.55,33.75,3.83,50.63c0.71,9.39,1.42,18.79,2.13,28.18c0.07,0.96-0.16,2.08,1.59,2.44c0.19-0.86,0.48-1.68,0.54-2.52
	c0.68-9.23,1.34-18.46,1.99-27.7c0.95-13.56,1.85-27.12,2.85-40.67c0.48-6.48,1.13-12.95,1.71-19.43c0.05-0.58,0.12-1.16,0.21-1.74
	c0.35-2.02,1.19-2.98,2.7-3.1c1.44-0.11,3.16,0.97,3.73,2.45c0.27,0.69,0.41,1.44,0.53,2.18c1.14,6.83,2.25,13.65,3.38,20.48
	c0.2,1.2,0.02,2.88,1.45,3.19c1.56,0.34,3.28,0.14,4.89-0.1c0.4-0.06,0.82-1.15,0.92-1.81c0.46-3.26,1.39-6.35,3.22-9.11
	c5.26-7.93,15.55-10.91,24.32-7.22c8.7,3.66,14.73,13.92,11.53,24.36c-2.87,9.38-12.18,14.97-21.55,13.74
	c-6.24-0.82-11.12-3.92-14.46-9.24c-0.93-1.47-1.94-2.05-3.63-1.96c-2.08,0.12-4.17,0.04-6.25,0.03c-3.45-0.01-3.45-0.01-6.06-2.2
	c-0.17,0.82-0.39,1.5-0.45,2.2c-0.39,4.4-0.8,8.8-1.1,13.21c-1.14,16.3-2.24,32.61-3.36,48.91c-1.19,17.3-2.37,34.61-3.58,51.91
	c-0.12,1.65-0.22,3.35-0.69,4.92c-0.68,2.31-2.09,3.43-3.57,3.29c-1.74-0.16-3.03-1.73-3.22-4.17c-0.63-7.81-1.22-15.63-1.79-23.45
	c-1.48-20.21-2.92-40.42-4.41-60.62c-1.42-19.29-2.91-38.58-4.34-57.87c-1.45-19.63-2.82-39.26-4.27-58.88
	c-2.02-27.27-4.09-54.55-6.14-81.82c-0.12-1.55-0.21-3.1-0.32-4.81c-1.28,0.35-1.07,1.22-1.14,1.87c-0.55,5.14-1.1,10.28-1.58,15.42
	c-1.22,12.95-2.42,25.9-3.59,38.85c-1.25,13.78-2.43,27.57-3.68,41.36c-1.33,14.53-2.73,29.05-4.07,43.58
	c-0.71,7.64-1.36,15.28-2.04,22.92c-0.07,0.83-0.24,1.65-0.27,2.48c-0.05,1.47-0.86,2.34-2.19,2.68c-1.36,0.36-2.5-0.21-3.25-1.33
	c-0.55-0.82-0.97-1.75-1.29-2.68c-0.66-1.89-1.2-3.82-1.81-5.72c-0.14-0.44-0.36-0.86-0.73-1.72c-0.35,0.92-0.6,1.4-0.73,1.92
	c-0.55,2.26-0.99,4.56-1.63,6.8c-0.68,2.37-1.37,2.83-3.72,2.87c-2.67,0.04-5.34,0.07-8.01,0.06c-2.66-0.01-4.02-1.13-4.39-3.79
	c-0.2-1.48-0.03-3.01-0.22-4.49c-0.13-1.05-0.39-2.15-0.91-3.05c-0.69-1.2-2.07-1.24-2.89-0.11c-0.57,0.79-0.97,1.75-1.24,2.69
	c-0.48,1.68-0.74,3.42-1.2,5.11c-0.74,2.69-1.83,3.52-4.63,3.53c-11.93,0.05-23.85,0.11-35.78,0.08c-1.19,0-2.52-0.35-3.53-0.97
	c-2.44-1.49-2.59-4.28-0.38-6.06c2.59-2.09,5.24-4.14,8-6c8.78-5.94,17.3-12.22,24.92-19.63c5.34-5.19,10.31-10.76,13.17-17.76
	c4.64-11.34,4.57-22.71-1.37-33.55c-6.81-12.42-22.11-16.16-34.42-8.77c-6.31,3.79-11.1,9-14.41,15.58
	c-0.71,1.41-1.27,3.03-3.23,3.07c-1.98,0.03-2.58-1.61-3.3-2.99c-3.65-7.07-8.62-12.86-15.86-16.46
	c-7.49-3.72-15.08-4.05-22.62-0.29c-5.33,2.66-9.29,6.85-11.62,12.31c-5.72,13.43-4.68,26.36,3.52,38.53
	c4.32,6.42,9.89,11.7,15.8,16.62c6.02,5.01,12.25,9.76,18.89,13.95c2.11,1.33,4.12,2.84,6.1,4.36c0.85,0.65,1.64,1.45,2.24,2.33
	c1.64,2.39,0.59,4.92-2.25,5.51c-0.81,0.17-1.66,0.14-2.49,0.14c-10.84,0.04-21.68,0.04-32.52,0.12c-2,0.01-3.32-0.82-4.24-2.51
	c-0.62-1.14-1.27-2.25-2.18-3.86c-0.7,1.21-1.17,1.94-1.57,2.71c-0.38,0.74-0.65,1.53-1.05,2.26c-0.52,0.95-1.34,1.46-2.47,1.37
	c-0.33-0.03-0.67-0.06-1-0.06c-3.43,0-4.55-1.03-4.82-4.49c-0.14-1.74-0.17-3.5-0.42-5.23c-0.14-0.97-0.48-1.96-0.95-2.82
	c-0.63-1.15-1.66-1.21-2.34-0.08c-0.69,1.12-1.23,2.37-1.59,3.64c-0.45,1.6-0.63,3.27-0.97,4.9c-0.62,3.01-1.92,4.05-5,4.15
	c-1.47,0.05-3.36-0.31-4.29,0.46c-0.96,0.78-1.08,2.69-1.43,4.13c-1.8,7.46-3.55,14.92-5.32,22.38c-0.15,0.65-0.27,1.31-0.48,1.94
	c-0.51,1.53-1.7,2.24-3.22,2.36c-1.46,0.12-2.96-0.89-3.5-2.32c-0.23-0.61-0.35-1.29-0.4-1.94c-0.97-12.64-1.93-25.27-2.89-37.91
	c-0.07-0.97-0.17-1.93-0.49-2.92c-0.8,1.13-0.79,2.43-0.9,3.68c-0.62,6.89-1.2,13.79-1.82,20.68c-0.15,1.72-1.29,2.99-2.88,3.32
	c-1.57,0.32-3.15-0.36-3.98-1.95c-0.49-0.95-0.74-2.03-1.03-3.07c-0.64-2.33-1.28-4.66-1.82-7.02c-0.31-1.36-0.94-1.95-2.41-1.89
	c-2.41,0.1-4.85-0.21-7.25,0.02c-3.42,0.33-4.91-1.83-5.48-4.6c-1.76-8.57-3.38-17.18-5.05-25.77c-0.6-3.11-1.19-6.22-1.8-9.33
	c-0.1-0.52-0.34-1-0.99-1.51c-0.15,0.76-0.34,1.52-0.45,2.29c-2.6,16.98-5.2,33.95-7.78,50.93c-2.81,18.55-5.6,37.1-8.4,55.65
	c-0.14,0.91-0.19,1.83-0.34,2.73c-0.36,2.2-1.72,3.53-3.54,3.52c-1.83-0.01-3.39-1.39-3.73-3.41c-0.5-2.96-0.97-5.92-1.4-8.89
	c-1.45-10.07-2.86-20.14-4.3-30.21c-2.09-14.61-4.2-29.21-6.31-43.82c-0.09-0.61-0.3-1.21-0.89-1.83c-0.22,0.59-0.48,1.17-0.67,1.77
	c-0.97,3.19-1.81,6.42-2.9,9.57c-0.94,2.72-1.36,2.89-4.22,2.89c-34.03,0.01-68.05,0.03-102.08,0.05c-2.46,0-2.65,0.33-2.24,2.82
	c0.4,2.46,0.83,4.94,0.87,7.42c0.07,4.19-2.2,6.71-6.37,7.29c-5.36,0.75-10.22-0.84-14.83-3.44c-4.9-2.76-8.18-7.06-10.89-11.8
	c-1.02-1.78-2.11-2.33-4.13-2.32c-29.02,0.06-58.04,0.02-87.07,0.01c-0.5,0-1-0.02-1.5-0.03c-1.89-0.06-3.15-0.97-3.68-2.81
	c-0.87-3.04-1.71-6.09-2.57-9.14c-0.22-0.77-0.48-1.53-1.18-2.28c-0.14,0.41-0.35,0.8-0.42,1.22c-1.58,10.47-3.17,20.93-4.72,31.41
	c-1.72,11.63-3.39,23.26-5.08,34.9c-0.8,5.53-1.58,11.06-2.37,16.59c-0.02,0.17-0.04,0.33-0.07,0.5c-0.41,2.29-1.7,3.59-3.53,3.55
	c-1.83-0.04-3.39-1.39-3.74-3.43c-0.66-3.78-1.28-7.56-1.84-11.36c-1.98-13.36-3.92-26.73-5.9-40.09
	c-2.55-17.15-5.13-34.3-7.7-51.45c-0.38-2.56-0.73-5.12-1.13-7.67c-0.06-0.37-0.28-0.72-0.66-1.64c-0.36,1.24-0.61,1.91-0.75,2.6
	c-2.27,11.36-4.53,22.73-6.8,34.09c-0.13,0.65-0.24,1.32-0.49,1.93c-0.8,1.95-2.15,3.08-4.39,3.04c-2.67-0.05-5.34,0.02-8,0.06
	c-1.95,0.03-2.08,0.12-2.56,2c-0.72,2.83-1.4,5.66-2.08,8.5c-0.52,2.15-1.93,3.48-3.69,3.41c-1.82-0.07-3.36-1.39-3.6-3.52
	c-0.55-4.8-0.96-9.62-1.39-14.44c-0.22-2.49-0.36-4.99-0.56-7.48c-0.07-0.89-0.23-1.77-0.34-2.65c-0.19-0.01-0.38-0.02-0.57-0.04
	c-0.12,0.91-0.3,1.82-0.37,2.73c-0.97,12.47-1.92,24.94-2.88,37.41c-0.05,0.66-0.14,1.33-0.24,1.99c-0.32,2.04-1.37,3.18-3.09,3.37
	c-1.74,0.19-3.41-0.89-3.99-2.74c-0.49-1.59-0.8-3.24-1.19-4.86c-1.71-7.13-3.41-14.27-5.12-21.4c-0.17-0.71-0.44-1.4-0.7-2.22
	c-1.78,0-3.44,0-5.09,0c-2.82-0.01-3.93-0.88-4.53-3.61c-0.5-2.28-0.89-4.58-1.48-6.83c-0.28-1.07-0.92-2.06-1.66-3.65
	c-0.81,1.2-1.52,1.85-1.7,2.61c-0.47,2.01-0.83,4.07-1,6.13c-0.4,4.76-1.09,5.45-5.82,5.26c-2.6-0.1-3.1-0.48-3.94-2.99
	c-0.21-0.63-0.4-1.27-0.63-1.89c-0.05-0.14-0.22-0.24-0.39-0.43c-1.1,0.21-1.17,1.27-1.48,2.03c-1.02,2.5-2.8,3.4-5.49,3.38
	c-10.51-0.08-21.02-0.01-31.52,0.01c-0.42,0-0.83,0.03-1.25,0.01c-1.83-0.08-3.52-0.48-4.33-2.36c-0.76-1.78-0.1-4.37,1.56-5.63
	c2.59-1.96,5.27-3.81,7.95-5.64c9.1-6.21,17.95-12.73,25.7-20.63c4.22-4.3,8.15-8.84,10.75-14.34c5.77-12.22,5.79-24.42-0.97-36.2
	c-6.45-11.23-20.75-14.95-32.32-8.85c-7.25,3.83-12.55,9.52-16.23,16.8c-0.23,0.45-0.42,0.91-0.7,1.32
	c-1.29,1.89-3.45,1.91-4.71-0.03c-0.91-1.39-1.62-2.91-2.44-4.36c-3.36-5.88-8.05-10.41-14.02-13.54
	c-12.54-6.58-26.65-2.32-33.56,10.03c-4.06,7.27-5.02,15.08-4.13,23.24c1.04,9.59,5.92,17.21,12.23,24.09
	c5.88,6.42,12.57,11.92,19.6,17.02c4.65,3.38,9.41,6.62,14.05,10.01c1.26,0.92,2.53,2,3.36,3.29c1.92,2.99,0.51,5.6-3.02,5.62
	c-12.43,0.09-24.85,0.1-37.28,0.08c-2.9,0-4.41-1.39-4.94-4.29c-0.23-1.23-0.35-2.47-0.55-3.71c-0.09-0.57-0.22-1.15-0.39-1.7
	c-0.34-1.08-0.84-2.14-2.15-2.08c-1.27,0.05-1.75,1.16-2.09,2.21c-0.18,0.54-0.24,1.14-0.27,1.72c-0.07,1.58-0.09,3.16-0.13,4.74
	c-0.06,1.94-0.74,2.92-2.62,3c-3.5,0.16-7.01,0.23-10.5,0.06c-2.03-0.1-3.26-1.59-3.67-3.57c-0.39-1.87-0.65-3.78-0.98-5.66
	c-0.11-0.62-0.27-1.24-0.53-2.42c-0.48,0.96-0.78,1.41-0.93,1.91c-0.66,2.24-1.23,4.5-1.91,6.73c-0.72,2.37-1.89,3.24-3.9,3.07
	c-1.82-0.15-2.86-1.17-3.17-3.57c-0.42-3.22-0.66-6.47-0.94-9.71c-1.07-12.21-2.12-24.42-3.2-36.62
	c-1.21-13.62-2.45-27.24-3.69-40.85c-0.93-10.13-1.91-20.25-2.83-30.38c-1.4-15.44-2.76-30.89-4.15-46.33
	c-0.05-0.59-0.26-1.17-0.39-1.75c-0.2,0-0.41,0-0.61,0c-0.14,0.68-0.35,1.35-0.4,2.03c-0.93,12.55-1.82,25.11-2.76,37.66
	c-1.04,13.88-2.15,27.76-3.2,41.65c-0.77,10.23-1.49,20.46-2.26,30.68c-0.8,10.56-1.65,21.11-2.44,31.67
	c-1.15,15.3-2.29,30.59-3.4,45.89c-0.77,10.64-1.46,21.29-2.24,31.94c-0.92,12.46-1.91,24.92-2.86,37.38
	c-0.72,9.48-1.4,18.96-2.09,28.44c-0.04,0.58-0.03,1.18-0.17,1.74c-0.31,1.24-1.13,2.02-2.38,2.3c-1.18,0.27-2.26-0.06-2.84-1.08
	c-0.69-1.2-1.49-2.5-1.62-3.82c-0.61-6.3-1.03-12.63-1.49-18.95c-0.9-12.39-1.81-24.78-2.65-37.18c-1.32-19.38-2.59-38.77-3.9-58.15
	C72.55,532.62,72.32,530.93,72.11,528.93z M541.3,514.33c0.57,0.12,0.97,0.31,1.34,0.27c1.98-0.19,3.97-0.38,5.94-0.7
	c0.89-0.14,1.77-0.49,2.57-0.9c1.88-0.95,2.22-2.43,0.82-4.05c-0.86-0.99-1.92-1.84-3.01-2.58c-4.38-2.94-9.32-4.75-14.15-6.77
	c-3.12-1.3-6.22-2.31-9.48-0.37c-0.66,0.39-1.7,0.13-2.06,1.46c0.97,0.5,1.94,1.09,2.98,1.53c4.2,1.81,8.44,3.49,12.16,6.25
	C540.42,509.95,542.44,511.28,541.3,514.33z M476.75,499.94c-0.33,1.3,0.48,1.91,1.4,2.26c1.08,0.4,2.24,0.57,3.36,0.87
	c7.72,2.1,15.5,3.98,23.45,4.93c4.78,0.57,9.62,0.75,14.44,0.92c1.26,0.04,2.63-0.43,3.79-0.99c1.16-0.56,1.28-1.64,0.28-2.42
	c-2.82-2.2-5.62-4.29-9.68-3.5c-5.73,1.11-11.57,1.54-17.41,1.32c-6.42-0.24-12.82-0.77-18.82-3.41
	C477.36,499.83,477.09,499.92,476.75,499.94z M457.87,452.37c0.43,0.63,0.52,0.89,0.71,1.01c1,0.61,1.99,1.22,3.03,1.75
	c7.49,3.81,15.6,5.37,23.84,6.04c9.15,0.75,18.3,0.32,27.38-1.33c9.76-1.77,19.02-4.87,27.66-9.76c2.29-1.3,4.37-2.88,6.42-4.89
	c-0.44,0-0.63-0.06-0.72,0.01c-5.64,4.17-11.98,6.86-18.67,8.76c-12.35,3.5-24.97,5.03-37.8,4.81c-7.87-0.13-15.64-0.91-23.19-3.22
	C463.75,454.7,461.07,453.56,457.87,452.37z M544.09,472.44c1-0.34,1.51-0.39,1.88-0.65c5.86-4.22,10.26-9.7,13.64-16.04
	c0.31-0.58,0.46-1.24,0.63-1.88c0.78-2.99-0.56-4.57-3.64-4.04c-1.79,0.31-3.49,1.08-5.25,1.56c-1.78,0.48-2.43,1.71-2.81,3.4
	c-0.9,3.98-1.95,7.93-2.95,11.89C545.15,468.41,544.68,470.15,544.09,472.44z M466.03,498.16c0.17-0.17,0.33-0.33,0.5-0.5
	c-0.44-0.54-0.85-1.11-1.33-1.6c-0.76-0.77-1.61-1.45-2.35-2.24c-2.91-3.09-5.78-6.23-8.72-9.3c-0.59-0.62-1.48-1.45-2.17-1.39
	c-2.05,0.17-4.17,0.48-6.07,1.21c-2.32,0.9-2.65,2.77-0.85,4.5c1.36,1.31,2.95,2.49,4.65,3.3c3.15,1.5,6.43,2.74,9.71,3.96
	C461.57,496.91,463.82,497.49,466.03,498.16z M961.79,516.75c-3.45-0.01-6.25,2.77-6.2,6.16c0.05,3.31,2.77,5.98,6.11,6
	c3.46,0.02,6.25-2.76,6.19-6.16C967.85,519.43,965.13,516.76,961.79,516.75z M38.91,528.43c3.22-0.03,5.83-2.73,5.77-5.97
	c-0.06-3.21-2.75-5.76-6.02-5.71c-3.24,0.05-5.87,2.76-5.78,5.96C32.95,525.93,35.63,528.46,38.91,528.43z M465.82,483.85
	c0.08,1.73,0.18,1.88,2.08,2.82C467.19,485.62,467.51,484.07,465.82,483.85z"/>
</svg>
