<?xml version="1.0" standalone="no"?>
<!DOCTYPE svg PUBLIC "-//W3C//DTD SVG 20010904//EN"
 "http://www.w3.org/TR/2001/REC-SVG-20010904/DTD/svg10.dtd">
<svg version="1.0" xmlns="http://www.w3.org/2000/svg"
 width="443.000000pt" height="272.000000pt" viewBox="0 0 443.000000 272.000000"
 preserveAspectRatio="xMidYMid meet">
<metadata>
Created by potrace 1.16, written by Peter Selinger 2001-2019
</metadata>
<g transform="translate(0.000000,272.000000) scale(0.100000,-0.100000)"
fill="#000000" stroke="none">
<path d="M1015 1998 c-8 -38 -60 -1067 -66 -1318 l-1 -45 -8 35 c-5 19 -11 80
-15 135 -16 260 -27 380 -36 398 -16 29 -35 5 -53 -71 -10 -37 -24 -77 -32
-89 -19 -29 -65 -30 -102 -3 -17 13 -35 18 -45 14 -21 -8 -33 -52 -20 -73 14
-22 57 -26 73 -7 7 9 28 16 47 16 46 0 76 35 92 105 7 30 16 55 20 55 8 0 27
-236 38 -475 6 -140 14 -185 32 -185 12 0 27 55 35 130 6 56 46 1051 46 1148
0 91 17 56 24 -50 3 -57 11 -155 16 -218 5 -63 14 -182 20 -265 11 -148 23
-215 40 -215 16 0 28 33 44 120 9 46 18 85 20 87 2 2 11 -31 21 -74 23 -107
48 -161 77 -168 13 -3 260 -4 549 -3 490 3 528 4 547 21 19 18 20 16 42 -130
27 -182 38 -225 53 -220 16 5 24 83 33 325 4 111 10 205 14 207 4 3 13 -32 20
-77 16 -99 31 -118 98 -119 148 -3 329 4 340 13 9 8 -12 36 -91 117 -76 79
-106 117 -115 147 -26 90 -8 160 50 190 69 36 145 13 195 -58 14 -21 29 -38
33 -38 4 0 18 15 30 33 41 59 77 81 131 80 76 -1 124 -42 136 -117 10 -61 -21
-122 -107 -211 -43 -44 -83 -91 -90 -104 -11 -22 -10 -27 10 -43 19 -15 42
-18 156 -18 153 0 138 -10 170 105 16 58 17 59 25 30 5 -16 18 -77 30 -135 40
-197 47 -177 109 329 11 91 22 166 24 168 5 6 13 -62 31 -262 9 -93 21 -180
27 -192 18 -35 67 -46 176 -38 91 6 99 5 116 -14 35 -38 96 -15 96 37 0 53
-75 72 -105 26 l-17 -27 -106 7 c-127 7 -138 14 -146 94 -55 514 -61 554 -80
523 -18 -28 -86 -524 -86 -622 0 -56 -17 -40 -25 24 -4 28 -13 82 -22 120 -17
79 -37 88 -53 25 -6 -24 -19 -70 -29 -103 l-17 -60 -105 -3 c-167 -5 -166 -6
-66 97 66 68 88 99 102 141 20 61 16 147 -10 186 -55 84 -191 87 -277 7 l-27
-26 -42 37 c-54 45 -105 61 -158 46 -82 -22 -121 -78 -121 -173 0 -76 37 -144
127 -233 40 -40 73 -76 73 -80 0 -11 -321 3 -333 15 -5 5 -20 63 -32 128 -13
65 -26 126 -30 136 -11 28 -34 20 -40 -15 -8 -48 -25 -340 -25 -433 -1 -109
-15 -78 -30 65 -13 120 -28 182 -45 182 -5 1 -18 -16 -28 -36 l-17 -36 -111 0
-112 0 47 50 c66 71 61 84 -37 88 l-77 3 27 47 c14 26 28 49 30 51 1 2 19 -12
38 -32 30 -31 43 -37 78 -37 53 0 81 19 109 73 46 88 18 226 -54 263 -35 18
-79 18 -104 -1 -27 -20 -32 -19 -36 13 l-3 27 -358 3 -357 2 -11 -27 c-22 -55
9 -231 57 -326 13 -27 24 -51 24 -53 0 -2 -34 -4 -75 -4 -71 0 -75 -1 -75 -22
0 -13 20 -43 48 -71 l47 -49 -78 4 c-50 3 -84 10 -93 20 -8 8 -29 78 -46 156
-17 78 -35 142 -39 142 -16 0 -29 -39 -40 -117 -16 -110 -25 -118 -33 -27 -4
43 -11 129 -16 189 -6 61 -19 224 -30 364 -12 140 -23 258 -26 263 -10 15 -24
8 -29 -14z m1080 -535 c-12 -101 -25 -146 -63 -223 l-37 -75 -195 -3 c-107 -1
-205 0 -217 3 -43 10 -113 198 -113 304 l0 51 316 0 316 0 -7 -57z m200 -15
c49 -58 23 -188 -40 -204 -110 -27 -148 196 -40 236 29 11 52 1 80 -32z m-186
-364 c-7 -8 -31 -25 -53 -37 -39 -21 -54 -22 -266 -22 l-225 0 -52 27 c-28 15
-54 32 -58 38 -4 7 104 10 331 10 305 0 335 -1 323 -16z"/>
<path d="M1706 1892 c-3 -5 1 -18 9 -28 23 -31 17 -63 -20 -114 -46 -63 -45
-120 4 -157 28 -21 33 4 10 45 l-24 41 23 28 c12 15 32 47 44 71 l23 43 -20
36 c-21 38 -39 51 -49 35z"/>
<path d="M1790 1891 c0 -5 7 -22 15 -37 18 -35 12 -57 -28 -108 -20 -25 -31
-50 -31 -71 0 -31 37 -95 55 -95 14 0 10 33 -6 54 -23 30 -18 52 20 107 40 59
44 95 14 133 -20 26 -39 34 -39 17z"/>
<path d="M1876 1891 c-3 -4 1 -17 9 -27 23 -30 17 -68 -15 -109 -17 -21 -33
-49 -36 -62 -7 -27 10 -75 36 -98 28 -25 33 -1 9 44 -20 39 -20 43 -5 64 9 12
28 37 41 56 30 41 32 80 4 115 -21 27 -34 32 -43 17z"/>
</g>
</svg>
